<svg id="Giant_logo" data-name="Giant" xmlns="http://www.w3.org/2000/svg" xmlns:xlink="http://www.w3.org/1999/xlink"
     viewBox="0 0 535.67 142.32">
    <defs>
        <style>
            .cls-1{fill:url(#linear-gradient);}.cls-2{fill:url(#linear-gradient-2);}.cls-3{fill:url(#linear-gradient-3);}.cls-4{fill:url(#linear-gradient-4);}.cls-5{fill:url(#linear-gradient-5);}.cls-6{fill:url(#linear-gradient-6);}
        </style>
        <linearGradient id="linear-gradient" y1="49.68" x2="32" y2="49.68" gradientUnits="userSpaceOnUse">
            <stop offset="0" stop-color="#1055b1"/>
            <stop offset="1" stop-color="#1477e5"/>
        </linearGradient>
        <linearGradient id="linear-gradient-2" x1="14.34" y1="47.55" x2="77.34" y2="8.88"
                        xlink:href="#linear-gradient"/>
        <linearGradient id="linear-gradient-3" x1="61.62" y1="36.27" x2="123.25" y2="36.27"
                        xlink:href="#linear-gradient"/>
        <linearGradient id="linear-gradient-4" x1="115.17" y1="83.89" x2="63.42" y2="125.89"
                        xlink:href="#linear-gradient"/>
        <linearGradient id="linear-gradient-5" x1="70.32" y1="130" x2="12.57" y2="95.01" xlink:href="#linear-gradient"/>
        <linearGradient id="linear-gradient-6" x1="66.75" y1="81.18" x2="123.23" y2="81.18"
                        xlink:href="#linear-gradient"/>
    </defs>
    <title>logo_4</title>
    <path d="M507.48,564.78l-2,.22c-3.45.41-6.94,0.62-10.35,1.28-7.18,1.38-12.5,5.2-14.76,12.46a36.79,36.79,0,0,0-1.28,5.92c-1.21,8.83-.74,17.7-0.63,26.57a47.45,47.45,0,0,0,.9,7.7c1.42,7.94,6,13,13.92,14.86a47.63,47.63,0,0,0,9.58,1.4c10,0.24,20,.3,30,0.22a58.43,58.43,0,0,0,15.27-1.85c6.37-1.77,10.84-5.55,12.5-12.11a39.7,39.7,0,0,0,1.27-8.14c0.25-6.47.21-13,.28-19.43a3.08,3.08,0,0,0-.11-0.65H519.31v13.63h25.41c0,2.19.1,4.25,0,6.3-0.21,3.59-1.5,5.25-5,6a45.19,45.19,0,0,1-8.17,1c-6.39.16-12.8,0.16-19.19,0.1a67.46,67.46,0,0,1-8.59-.59c-5.13-.72-7.61-3.28-8.15-8.43a97.56,97.56,0,0,1,.06-21.09c0.64-5.79,3.56-8.68,9.11-9.29a66.09,66.09,0,0,1,7-.45q24.17-.08,48.35-0.07h1.44c-0.81-5.7-3.71-9.64-8.85-11.9-4.74-2.09-9.78-2.75-14.88-3.17-2.42-.19-4.84-0.33-7.25-0.49H507.48Z"
          transform="translate(-332.67 -528.98)"/>
    <path d="M725.91,566c-4.15.11-8.32,0-12.47,0H703.26v68.59H719.7V583.41l1.45,1.62q21.42,24.34,42.83,48.68a2.61,2.61,0,0,0,2.21,1c5.7,0,11.4,0,17.1,0h1.24V566.12H768V613l-1-1.18q-19-22.18-38-44.38a3.53,3.53,0,0,0-3-1.45h-0.13"
          transform="translate(-332.67 -528.98)"/>
    <path d="M634.86,567.08q-17,33.12-34.13,66.21c-0.21.41-.39,0.83-0.63,1.35,0.31,0,.49.06,0.68,0.06h4.39c4.4,0,8.79,0,13.18,0a1.29,1.29,0,0,0,1.29-.95q4.4-8.52,8.81-17c2.29-4.46,4.54-9,6.85-13.41q6.29-12.16,12.63-24.29c0.2-.38.41-0.74,0.72-1.29,0.34,0.62.58,1,.8,1.45q10.32,20.14,20.63,40.29,3.63,7.11,7.2,14.27a1.44,1.44,0,0,0,1.51,1c5.27,0,10.53,0,15.8,0H697c-0.23-.5-0.37-0.85-0.55-1.19q-17.15-33.26-34.3-66.53a1.64,1.64,0,0,0-1.71-1.06q-11.82.05-23.64,0h0a1.83,1.83,0,0,0-1.89,1.16"
          transform="translate(-332.67 -528.98)"/>
    <polygon
            points="461.49 37.07 461.49 50.93 490.38 50.93 490.38 105.66 506.82 105.66 506.82 50.89 535.67 50.89 535.67 37.07 461.49 37.07"/>
    <rect x="243.07" y="37.11" width="16.26" height="68.53"/>
    <rect x="243.07" y="37.11" width="16.26" height="68.53"/>
    <polygon class="cls-1" points="0 63.75 32 82.25 32 54.06 32 17.1 0 35.58 0 63.75"/>
    <polygon class="cls-2"
             points="93.62 18.48 61.62 0 37.91 13.69 32 17.11 32 54.06 61.62 36.95 61.63 36.95 93.62 18.48 93.62 18.48"/>
    <polygon class="cls-3" points="93.62 18.48 61.62 36.95 91.25 54.06 123.25 35.58 93.62 18.48"/>
    <polygon class="cls-4" points="123.23 106.74 61.62 142.32 29.67 123.87 91.25 88.25 123.23 106.74"/>
    <polygon class="cls-5" points="61.63 105.39 0 69.74 0 106.74 29.67 123.87 61.63 105.39"/>
    <polygon class="cls-6" points="98.75 55.61 66.75 74.08 123.23 106.74 123.23 69.77 98.75 55.61"/>
</svg>
