<svg xmlns="http://www.w3.org/2000/svg" width="15" height="15" viewBox="0 0 15 15">
  <g id="Group_3" data-name="Group 3" transform="translate(-307.376 -349)">
    <path id="Subtraction_71" data-name="Subtraction 71" d="M9.84,10.84H1a1,1,0,0,1-1-1V1A1,1,0,0,1,1,0H9.84a1,1,0,0,1,1,1V9.84A1,1,0,0,1,9.84,10.84ZM1.855,1.355a.5.5,0,0,0-.5.5v7.13a.5.5,0,0,0,.5.5h7.13a.5.5,0,0,0,.5-.5V1.855a.5.5,0,0,0-.5-.5Z" transform="translate(311.536 349)" fill="#c7c7c7"/>
    <path id="Subtraction_73" data-name="Subtraction 73" d="M9.84,10.84H1a1,1,0,0,1-1-1V1A1,1,0,0,1,1,0H3.361V1.355H1.855a.5.5,0,0,0-.5.5v7.13a.5.5,0,0,0,.5.5h7.13a.5.5,0,0,0,.5-.5V7.508H10.84V9.84A1,1,0,0,1,9.84,10.84Z" transform="translate(307.376 353.16)" fill="#c7c7c7"/>
  </g>
</svg>
