<svg xmlns="http://www.w3.org/2000/svg" width="11" height="11" viewBox="0 0 11 11">
  <path id="refresh" data-name="refresh" d="M8.238,3.46a3.771,3.771,0,0,0-1.186-.743,3.723,3.723,0,0,0-1.364-.255,3.632,3.632,0,0,0-2.3.787,3.619,3.619,0,0,0-1.32,2.029.253.253,0,0,1-.266.2H.542a.253.253,0,0,1-.211-.1.251.251,0,0,1-.055-.211A5.418,5.418,0,0,1,1.3,2.883,5.6,5.6,0,0,1,3.215,1.275,5.325,5.325,0,0,1,5.688.688,5.406,5.406,0,0,1,9.48,2.218l.8-.8a.532.532,0,0,1,.909.377V4.768a.53.53,0,0,1-.532.532H7.683a.533.533,0,0,1-.377-.909ZM.72,7.075H3.692a.533.533,0,0,1,.377.909l-.931.931a3.771,3.771,0,0,0,1.186.743,3.723,3.723,0,0,0,1.364.255,3.632,3.632,0,0,0,2.3-.787A3.619,3.619,0,0,0,9.3,7.1a.253.253,0,0,1,.266-.2h1.264a.267.267,0,0,1,.266.31,5.418,5.418,0,0,1-1.02,2.284A5.6,5.6,0,0,1,8.16,11.1a5.325,5.325,0,0,1-2.473.588A5.406,5.406,0,0,1,1.9,10.157l-.8.8a.513.513,0,0,1-.377.155.513.513,0,0,1-.377-.155.513.513,0,0,1-.155-.377V7.607A.513.513,0,0,1,.343,7.23.513.513,0,0,1,.72,7.075Z" transform="translate(11.188 11.688) rotate(180)" fill="#c7c7c7"/>
</svg>
